<svg width="16" height="13" viewBox="0 0 16 13" fill="none" xmlns="http://www.w3.org/2000/svg">
<g clip-path="url(#clip0_9_5)">
<path d="M13.5447 1.10372C12.5249 0.635794 11.4313 0.291051 10.2879 0.0936017C10.2671 0.089791 10.2463 0.0993142 10.2356 0.118361C10.0949 0.368504 9.93915 0.694837 9.83006 0.951332C8.60027 0.76722 7.37679 0.76722 6.17221 0.951332C6.0631 0.689135 5.90166 0.368504 5.76038 0.118361C5.74966 0.0999497 5.72886 0.0904265 5.70803 0.0936017C4.56527 0.29042 3.47171 0.635163 2.45129 1.10372C2.44246 1.10752 2.43488 1.11388 2.42986 1.12213C0.355594 4.22103 -0.212633 7.24377 0.0661201 10.229C0.0673814 10.2436 0.0755799 10.2576 0.086932 10.2665C1.45547 11.2715 2.78114 11.8817 4.08219 12.2861C4.10301 12.2924 4.12507 12.2848 4.13832 12.2677C4.44608 11.8474 4.72043 11.4042 4.95565 10.9382C4.96953 10.9109 4.95628 10.8785 4.92791 10.8677C4.49275 10.7027 4.0784 10.5014 3.67982 10.2728C3.64829 10.2544 3.64577 10.2093 3.67477 10.1877C3.75865 10.1249 3.84255 10.0595 3.92264 9.99347C3.93713 9.98142 3.95732 9.97887 3.97435 9.98649C6.59286 11.182 9.4277 11.182 12.0153 9.98649C12.0323 9.97824 12.0525 9.98079 12.0677 9.99284C12.1478 10.0589 12.2316 10.1249 12.3161 10.1877C12.3451 10.2093 12.3433 10.2544 12.3117 10.2728C11.9131 10.5058 11.4988 10.7027 11.063 10.8671C11.0346 10.8779 11.022 10.9109 11.0359 10.9382C11.2762 11.4036 11.5505 11.8467 11.8526 12.267C11.8652 12.2848 11.8879 12.2924 11.9087 12.2861C13.2161 11.8817 14.5417 11.2715 15.9103 10.2665C15.9223 10.2576 15.9298 10.2443 15.9311 10.2297C16.2647 6.77837 15.3723 3.78043 13.5655 1.12276C13.5611 1.11388 13.5535 1.10752 13.5447 1.10372ZM5.34668 8.41132C4.55833 8.41132 3.90875 7.68756 3.90875 6.7987C3.90875 5.90984 4.54574 5.18608 5.34668 5.18608C6.15392 5.18608 6.79721 5.9162 6.78459 6.7987C6.78459 7.68756 6.14761 8.41132 5.34668 8.41132ZM10.6632 8.41132C9.87484 8.41132 9.22526 7.68756 9.22526 6.7987C9.22526 5.90984 9.86222 5.18608 10.6632 5.18608C11.4704 5.18608 12.1137 5.9162 12.1011 6.7987C12.1011 7.68756 11.4704 8.41132 10.6632 8.41132Z" fill="white"/>
</g>
<defs>
<clipPath id="clip0_9_5">
<rect width="16" height="12.3944" fill="white"/>
</clipPath>
</defs>
</svg>
