<svg width="16" height="16" viewBox="0 0 16 16" fill="none" xmlns="http://www.w3.org/2000/svg">
<g clip-path="url(#clip0_1_4)">
<path d="M15.998 8.04799C15.998 3.60254 12.4164 -0.00100708 7.99899 -0.00100708C3.57954 -7.20496e-06 -0.00201416 3.60254 -0.00201416 8.04899C-0.00201416 12.0655 2.92362 15.3951 6.74714 15.999V10.3747H4.7174V8.04899H6.74914V6.27421C6.74914 4.25746 7.94399 3.1436 9.77076 3.1436C10.6467 3.1436 11.5615 3.30058 11.5615 3.30058V5.28033H10.5527C9.55979 5.28033 9.24983 5.90126 9.24983 6.53818V8.04799H11.4676L11.1136 10.3737H9.24883V15.998C13.0724 15.3941 15.998 12.0645 15.998 8.04799Z" fill="white"/>
</g>
<defs>
<clipPath id="clip0_1_4">
<rect width="16" height="16" fill="white"/>
</clipPath>
</defs>
</svg>
